<mxfile host="app.diagrams.net" modified="2021-09-03T20:12:56.267Z" agent="5.0 (Windows NT 10.0; Win64; x64) AppleWebKit/537.36 (KHTML, like Gecko) Chrome/92.0.4515.159 Safari/537.36" etag="1fgT2n84xqAz92qDah_Y" version="15.0.6" type="github">
  <diagram id="6I0OCvxSQrVGMHxT2VVA" name="Page-1">
    <mxGraphModel dx="2062" dy="1065" grid="1" gridSize="10" guides="1" tooltips="1" connect="1" arrows="1" fold="1" page="1" pageScale="1" pageWidth="850" pageHeight="1100" math="0" shadow="0">
      <root>
        <mxCell id="0" />
        <mxCell id="1" parent="0" />
        <mxCell id="dKdSaXE48SgPbhcamS2K-30" value="" style="whiteSpace=wrap;html=1;strokeColor=none;strokeWidth=1;fillColor=#f5f5f5;fontSize=14;" parent="1" vertex="1">
          <mxGeometry x="200" y="880" width="1440" height="300" as="geometry" />
        </mxCell>
        <mxCell id="dKdSaXE48SgPbhcamS2K-31" value="" style="whiteSpace=wrap;html=1;strokeColor=none;strokeWidth=1;fillColor=#f5f5f5;fontSize=14;" parent="1" vertex="1">
          <mxGeometry x="200" y="500" width="1440" height="350" as="geometry" />
        </mxCell>
        <mxCell id="dKdSaXE48SgPbhcamS2K-32" value="" style="whiteSpace=wrap;html=1;strokeColor=none;strokeWidth=1;fillColor=#f5f5f5;fontSize=14;" parent="1" vertex="1">
          <mxGeometry x="200" y="230" width="1440" height="240" as="geometry" />
        </mxCell>
        <mxCell id="dKdSaXE48SgPbhcamS2K-40" value="Service" style="html=1;whiteSpace=wrap;fillColor=#AFFFAF;shape=mxgraph.archimate3.service;fontSize=14;" parent="1" vertex="1">
          <mxGeometry x="346.5" y="930" width="150" height="50" as="geometry" />
        </mxCell>
        <mxCell id="dKdSaXE48SgPbhcamS2K-45" value="Service" style="html=1;whiteSpace=wrap;fillColor=#AFFFAF;shape=mxgraph.archimate3.service;fontSize=14;" parent="1" vertex="1">
          <mxGeometry x="554.5" y="930" width="150" height="50" as="geometry" />
        </mxCell>
        <mxCell id="dKdSaXE48SgPbhcamS2K-47" value="What are the &#xa;properties of a &#xa;List?" style="shape=component;align=center;fillColor=#99ffff;gradientColor=none;fontSize=14;" parent="1" vertex="1">
          <mxGeometry x="230" y="530" width="185" height="80" as="geometry" />
        </mxCell>
        <mxCell id="dKdSaXE48SgPbhcamS2K-49" value="What re the &#xa;Properties of a &#xa;ListItem" style="shape=component;align=center;fillColor=#99ffff;gradientColor=none;fontSize=14;" parent="1" vertex="1">
          <mxGeometry x="440" y="530" width="185" height="80" as="geometry" />
        </mxCell>
        <mxCell id="dKdSaXE48SgPbhcamS2K-51" value="Does remove mean &#xa;delete, or inactivate?" style="shape=component;align=center;fillColor=#99ffff;gradientColor=none;fontSize=14;" parent="1" vertex="1">
          <mxGeometry x="650" y="530" width="185" height="80" as="geometry" />
        </mxCell>
        <mxCell id="dKdSaXE48SgPbhcamS2K-53" value="Who else can VIEW&#xa;Lists?" style="shape=component;align=center;fillColor=#99ffff;gradientColor=none;fontSize=14;" parent="1" vertex="1">
          <mxGeometry x="850" y="530" width="185" height="80" as="geometry" />
        </mxCell>
        <mxCell id="dKdSaXE48SgPbhcamS2K-54" value="Create a New List" style="html=1;whiteSpace=wrap;fillColor=#ffff99;shape=mxgraph.archimate3.application;appType=func;archiType=rounded;fontSize=14;" parent="1" vertex="1">
          <mxGeometry x="230" y="313" width="150" height="75" as="geometry" />
        </mxCell>
        <mxCell id="dKdSaXE48SgPbhcamS2K-56" value="Remove an Item from a list" style="html=1;whiteSpace=wrap;fillColor=#ffff99;shape=mxgraph.archimate3.application;appType=event;archiType=rounded;fontSize=14;" parent="1" vertex="1">
          <mxGeometry x="650" y="313" width="150" height="75" as="geometry" />
        </mxCell>
        <mxCell id="dKdSaXE48SgPbhcamS2K-57" value="View lists" style="html=1;whiteSpace=wrap;fillColor=#ffff99;shape=mxgraph.archimate3.application;appType=proc;archiType=rounded;fontSize=14;" parent="1" vertex="1">
          <mxGeometry x="850" y="313" width="150" height="75" as="geometry" />
        </mxCell>
        <mxCell id="dKdSaXE48SgPbhcamS2K-63" value="Honeydew feature map" style="text;strokeColor=none;fillColor=none;html=1;fontSize=24;fontStyle=1;verticalAlign=middle;align=center;" parent="1" vertex="1">
          <mxGeometry x="50" y="70" width="1590" height="40" as="geometry" />
        </mxCell>
        <mxCell id="UJONmov9BAed16g93MeG-1" value="&lt;h1&gt;Who&lt;/h1&gt;&lt;p&gt;* Task Master&lt;/p&gt;&lt;p&gt;* Task Doer&lt;/p&gt;&lt;p&gt;* Friend of Task Doer&lt;/p&gt;" style="text;html=1;strokeColor=none;fillColor=none;spacing=5;spacingTop=-20;whiteSpace=wrap;overflow=hidden;rounded=0;" vertex="1" parent="1">
          <mxGeometry x="200" y="110" width="190" height="120" as="geometry" />
        </mxCell>
        <mxCell id="UJONmov9BAed16g93MeG-4" value="View List Items" style="html=1;whiteSpace=wrap;fillColor=#ffff99;shape=mxgraph.archimate3.application;appType=proc;archiType=rounded;fontSize=14;" vertex="1" parent="1">
          <mxGeometry x="1050" y="312.5" width="150" height="75" as="geometry" />
        </mxCell>
        <mxCell id="UJONmov9BAed16g93MeG-5" value="What do you see&#xa;when you view an &#xa;item?" style="shape=component;align=center;fillColor=#99ffff;gradientColor=none;fontSize=14;" vertex="1" parent="1">
          <mxGeometry x="1050" y="530" width="185" height="80" as="geometry" />
        </mxCell>
        <mxCell id="UJONmov9BAed16g93MeG-6" value="Feature" style="text;html=1;strokeColor=none;fillColor=none;align=center;verticalAlign=middle;whiteSpace=wrap;rounded=0;" vertex="1" parent="1">
          <mxGeometry x="140" y="388" width="40" height="20" as="geometry" />
        </mxCell>
        <mxCell id="UJONmov9BAed16g93MeG-7" value="&lt;font style=&quot;font-size: 18px&quot;&gt;As a Task Master, I want the ability to:&lt;/font&gt;" style="text;html=1;strokeColor=none;fillColor=none;align=center;verticalAlign=middle;whiteSpace=wrap;rounded=0;" vertex="1" parent="1">
          <mxGeometry x="629" y="260" width="450" height="20" as="geometry" />
        </mxCell>
        <mxCell id="UJONmov9BAed16g93MeG-9" value="Add an Item to a List" style="html=1;whiteSpace=wrap;fillColor=#ffff99;shape=mxgraph.archimate3.application;appType=func;archiType=rounded;fontSize=14;" vertex="1" parent="1">
          <mxGeometry x="440" y="313" width="150" height="75" as="geometry" />
        </mxCell>
        <mxCell id="UJONmov9BAed16g93MeG-10" value="Delete a list" style="html=1;whiteSpace=wrap;fillColor=#ffff99;shape=mxgraph.archimate3.application;appType=func;archiType=rounded;fontSize=14;" vertex="1" parent="1">
          <mxGeometry x="1250" y="312.5" width="150" height="75" as="geometry" />
        </mxCell>
        <mxCell id="UJONmov9BAed16g93MeG-11" value="What do you see &#xa;when you View Lists" style="shape=component;align=center;fillColor=#99ffff;gradientColor=none;fontSize=14;" vertex="1" parent="1">
          <mxGeometry x="850" y="630" width="185" height="80" as="geometry" />
        </mxCell>
        <mxCell id="UJONmov9BAed16g93MeG-12" value="If you delete a list,&#xa;What happens to it&#39;s &#xa;Items?" style="shape=component;align=center;fillColor=#99ffff;gradientColor=none;fontSize=14;" vertex="1" parent="1">
          <mxGeometry x="1250" y="530" width="185" height="80" as="geometry" />
        </mxCell>
        <mxCell id="UJONmov9BAed16g93MeG-13" value="assign a reward for item completion" style="html=1;whiteSpace=wrap;fillColor=#ffff99;shape=mxgraph.archimate3.application;appType=func;archiType=rounded;fontSize=14;" vertex="1" parent="1">
          <mxGeometry x="1450" y="312.5" width="150" height="75" as="geometry" />
        </mxCell>
      </root>
    </mxGraphModel>
  </diagram>
</mxfile>
